<svg width="194" height="194" viewBox="0 0 194 194" fill="none" xmlns="http://www.w3.org/2000/svg">
  <style>
    path { fill: #000; }
    @media (prefers-color-scheme: dark) {
    path { fill: #fff; }
    }
  </style>
  <path d="M193 0V193H0V0H193ZM4 189H189V4H4V189Z" />
  <path
    d="M136.999 58.762C137.462 60.8007 137.555 62.515 137.277 63.905C136.999 65.295 136.397 66.3143 135.47 66.963C134.636 67.6117 133.524 67.8897 132.134 67.797C130.837 67.7043 129.4 67.1483 127.825 66.129C125.972 65.017 123.933 63.5807 121.709 61.82C119.578 60.0593 117.91 58.4377 116.705 56.955C115.408 55.3797 114.435 54.1287 113.786 53.202C113.23 52.2753 113.045 51.5803 113.23 51.117C113.508 50.6537 114.203 50.3293 115.315 50.144C116.427 49.9587 118.049 49.8197 120.18 49.727C125.462 49.5417 129.4 50.1903 131.995 51.673C134.59 53.1557 136.258 55.5187 136.999 58.762ZM165.216 156.201C166.143 157.869 166.606 159.444 166.606 160.927C166.606 162.41 166.143 163.614 165.216 164.541C164.289 165.468 162.899 166.024 161.046 166.209C159.285 166.487 157.061 166.209 154.374 165.375C150.853 164.356 147.656 163.105 144.783 161.622C141.91 160.232 139.13 158.379 136.443 156.062C133.848 153.745 131.207 150.873 128.52 147.444C125.925 143.923 123.053 139.614 119.902 134.517C117.029 137.575 113.786 140.355 110.172 142.857C106.558 145.359 102.342 147.768 97.523 150.085C93.075 152.124 90.4803 152.726 89.739 151.892C88.9977 151.058 90.156 149.297 93.214 146.61C97.8474 142.718 101.739 138.826 104.89 134.934C108.133 130.949 110.96 126.965 113.369 122.98C112.072 120.385 110.774 117.559 109.477 114.501C108.272 111.443 107.068 108.339 105.863 105.188C104.658 101.945 103.5 98.7477 102.388 95.597C101.276 92.4463 100.303 89.481 99.469 86.701C92.3337 88.091 86.82 89.1103 82.928 89.759C79.1287 90.4077 76.0707 90.8247 73.754 91.01C74.032 93.9753 74.1247 96.8943 74.032 99.767C74.032 102.547 73.893 105.188 73.615 107.69C75.839 107.227 78.0167 106.578 80.148 105.744C82.372 104.817 84.04 103.844 85.152 102.825C86.1714 101.806 87.3297 101.157 88.627 100.879C89.9243 100.601 91.9167 101.064 94.604 102.269C96.828 103.196 98.5424 104.03 99.747 104.771C100.952 105.512 101.739 106.3 102.11 107.134C102.573 107.875 102.666 108.709 102.388 109.636C102.11 110.563 101.554 111.675 100.72 112.972C100.164 113.991 99.6544 115.196 99.191 116.586C98.7277 117.883 98.3107 120.015 97.94 122.98C97.4767 126.409 97.0134 129.374 96.55 131.876C96.0867 134.285 95.438 136.417 94.604 138.27C93.8627 140.031 92.8434 141.652 91.546 143.135C90.3414 144.525 88.8123 145.915 86.959 147.305C84.3643 149.158 82.1404 149.9 80.287 149.529C78.5264 149.251 77.4607 147.815 77.09 145.22C76.9973 144.849 76.8584 144.479 76.673 144.108C76.5804 143.645 76.395 143.135 76.117 142.579C75.839 141.93 75.422 141.189 74.866 140.355C74.31 139.521 73.5687 138.455 72.642 137.158C70.3253 133.915 69.3523 132.015 69.723 131.459C70.1863 130.81 72.5494 131.135 76.812 132.432C78.9434 133.081 80.426 133.266 81.26 132.988C82.094 132.71 82.7427 132.061 83.206 131.042C84.4107 128.077 85.2447 125.343 85.708 122.841C86.264 120.339 86.5883 117.374 86.681 113.945C86.7737 112.277 86.4957 111.35 85.847 111.165C85.291 110.98 83.901 111.258 81.677 111.999C80.1017 112.555 78.6653 112.972 77.368 113.25C76.0707 113.435 74.588 113.435 72.92 113.25C72.2713 118.069 71.391 122.424 70.279 126.316C69.167 130.115 67.6844 133.637 65.831 136.88C63.9777 140.123 61.661 143.135 58.881 145.915C56.101 148.602 52.7187 151.197 48.734 153.699C43.452 157.035 40.3013 158.425 39.282 157.869C38.3554 157.313 39.838 154.811 43.73 150.363C49.1047 144.154 52.9967 137.76 55.406 131.181C57.8154 124.509 59.2517 117.049 59.715 108.802C59.9004 105.188 59.9467 102.13 59.854 99.628C59.854 97.126 59.7614 95.0873 59.576 93.512C59.3907 91.844 59.1127 90.5467 58.742 89.62C58.464 88.6007 58.1397 87.813 57.769 87.257C56.5644 85.6817 55.7767 84.3843 55.406 83.365C55.128 82.3457 55.406 81.6507 56.24 81.28C57.074 80.9093 58.603 80.9093 60.827 81.28C63.1437 81.6507 66.248 82.4383 70.14 83.643C73.8467 83.4577 77.785 82.948 81.955 82.114C86.125 81.1873 91.129 79.7973 96.967 77.944C95.6697 73.5887 94.5577 69.9283 93.631 66.963C92.7044 63.9977 91.824 61.542 90.99 59.596C90.156 57.5573 89.2757 55.9357 88.349 54.731C87.515 53.5263 86.542 52.507 85.43 51.673C81.538 48.8003 80.0554 46.669 80.982 45.279C81.9087 43.889 86.0787 43.7037 93.492 44.723C95.994 45.0937 98.0327 45.557 99.608 46.113C101.183 46.5763 102.342 47.1787 103.083 47.92C103.917 48.5687 104.427 49.4027 104.612 50.422C104.797 51.3487 104.751 52.4143 104.473 53.619C104.288 54.2677 104.195 54.9627 104.195 55.704C104.288 56.4453 104.473 57.5573 104.751 59.04C105.029 60.43 105.446 62.3297 106.002 64.739C106.558 67.1483 107.299 70.299 108.226 74.191C112.581 72.523 115.871 71.5037 118.095 71.133C120.319 70.7623 122.404 70.9477 124.35 71.689C128.983 73.4497 131.393 75.2103 131.578 76.971C131.763 78.7317 129.771 80.1217 125.601 81.141C123.192 81.697 120.829 82.253 118.512 82.809C116.195 83.2723 113.601 83.8283 110.728 84.477C111.747 88.2763 113.091 92.4463 114.759 96.987C116.52 101.528 118.327 105.883 120.18 110.053C121.848 106.161 122.914 103.057 123.377 100.74C123.933 98.4233 123.979 96.6163 123.516 95.319C122.867 93.7437 122.497 92.4463 122.404 91.427C122.404 90.4077 122.775 89.7127 123.516 89.342C124.257 88.9713 125.416 88.9713 126.991 89.342C128.659 89.7127 130.883 90.5003 133.663 91.705C136.165 92.817 138.018 93.8827 139.223 94.902C140.52 95.8287 141.308 96.7553 141.586 97.682C141.864 98.6087 141.725 99.5353 141.169 100.462C140.706 101.389 140.011 102.315 139.084 103.242C138.343 103.983 137.601 105.003 136.86 106.3C136.119 107.505 135.377 108.895 134.636 110.47C133.431 112.972 132.273 115.335 131.161 117.559C130.049 119.783 128.891 121.914 127.686 123.953C129.261 126.455 130.744 128.725 132.134 130.764C133.617 132.803 135.099 134.656 136.582 136.324C138.065 137.992 139.594 139.567 141.169 141.05C142.744 142.533 144.505 143.969 146.451 145.359C148.397 146.842 149.694 147.537 150.343 147.444C150.992 147.259 151.594 146.286 152.15 144.525C152.891 142.116 153.447 140.123 153.818 138.548C154.189 136.973 154.513 135.166 154.791 133.127C155.44 128.401 156.459 125.992 157.849 125.899C159.239 125.806 160.119 128.54 160.49 134.1C160.675 137.436 160.907 140.262 161.185 142.579C161.463 144.803 161.787 146.749 162.158 148.417C162.621 150.085 163.085 151.521 163.548 152.726C164.011 153.931 164.567 155.089 165.216 156.201Z"
  />
  <path
    d="M188.184 8.05875L186.063 5.93743L190 2L192.121 4.12132L188.184 8.05875ZM172.434 23.8091L170.312 21.6878L178.188 13.8123L180.309 15.9336L172.434 23.8091ZM156.684 39.5588L154.562 37.4375L162.437 29.5627L164.559 31.684L156.684 39.5588ZM140.934 55.3085L138.813 53.1872L146.688 45.3124L148.809 47.4337L140.934 55.3085ZM125.184 71.0589L123.062 68.9376L130.937 61.0628L133.059 63.1841L125.184 71.0589ZM109.434 86.8086L107.313 84.6873L115.188 76.8125L117.309 78.9338L109.434 86.8086ZM93.6837 102.559L91.5623 100.438L99.4372 92.5628L101.559 94.6842L93.6837 102.559ZM77.934 118.309L75.8126 116.187L83.6875 108.313L85.8088 110.434L77.934 118.309ZM62.1836 134.059L60.0622 131.938L67.9378 124.062L70.0591 126.184L62.1836 134.059ZM46.4339 149.809L44.3125 147.687L52.1874 139.813L54.3087 141.934L46.4339 149.809ZM30.6842 165.558L28.5628 163.437L36.4377 155.562L38.559 157.684L30.6842 165.558ZM14.9338 181.309L12.8125 179.188L20.6873 171.313L22.8086 173.434L14.9338 181.309ZM3.1215 193.121L1.00018 191L4.93761 187.062L7.05893 189.184L3.1215 193.121Z"
  />
  <path
    d="M186.694 100V97H192V100H186.694ZM165.473 100V97H176.083V100H165.473ZM144.25 100V97H154.861V100H144.25ZM123.027 100V97H133.639V100H123.027ZM101.806 100V97H112.417V100H101.806ZM80.583 100V97H91.1943V100H80.583ZM59.3613 100V97H69.9727V100H59.3613ZM38.1387 100V97H48.75V100H38.1387ZM16.917 100V97H27.5273V100H16.917ZM1 100V97H6.30566V100H1Z"
  />
  <path
    d="M99 7.30566H96V2H99V7.30566ZM99 28.5273H96V17.917H99V28.5273ZM99 49.75H96V39.1387H99V49.75ZM99 70.9727H96V60.3613H99V70.9727ZM99 92.1943H96V81.583H99V92.1943ZM99 113.417H96V102.806H99V113.417ZM99 134.639H96V124.027H99V134.639ZM99 155.861H96V145.25H99V155.861ZM99 177.083H96V166.473H99V177.083ZM99 193H96V187.694H99V193Z"
  />
  <path
    d="M8.05876 4.81612L5.93744 6.93744L2.00002 3.00001L4.12134 0.878693L8.05876 4.81612ZM23.8092 20.5665L21.6878 22.6878L13.8123 14.8123L15.9336 12.691L23.8092 20.5665ZM39.5588 36.3162L37.4375 38.4375L29.5627 30.5627L31.684 28.4414L39.5588 36.3162ZM55.3085 52.0659L53.1872 54.1872L45.3124 46.3124L47.4337 44.1911L55.3085 52.0659ZM71.0589 67.8163L68.9376 69.9376L61.0628 62.0628L63.1841 59.9414L71.0589 67.8163ZM86.8086 83.566L84.6873 85.6873L76.8125 77.8125L78.9338 75.6911L86.8086 83.566ZM102.559 99.3164L100.438 101.438L92.5629 93.5629L94.6842 91.4415L102.559 99.3164ZM118.309 115.066L116.187 117.187L108.313 109.313L110.434 107.191L118.309 115.066ZM134.059 130.816L131.938 132.938L124.062 125.062L126.184 122.941L134.059 130.816ZM149.809 146.566L147.687 148.687L139.813 140.813L141.934 138.691L149.809 146.566ZM165.559 162.316L163.437 164.437L155.562 156.562L157.684 154.441L165.559 162.316ZM181.309 178.066L179.188 180.188L171.313 172.313L173.434 170.191L181.309 178.066ZM193.121 189.879L191 192L187.062 188.062L189.184 185.941L193.121 189.879Z"
  />
</svg>